<svg width="512" height="512" viewBox="0 0 512 512" fill="none" xmlns="http://www.w3.org/2000/svg">
<path d="M499.235 240.311C502.098 240.246 504.822 241.54 506.58 243.8C507.817 245.389 508.489 247.366 508.477 249.382C508.072 315.069 491.342 370.752 455.491 414.498C419.647 458.236 364.863 489.83 288.75 507.678C285.335 508.478 281.7 507.736 278.872 505.662C275.761 503.38 273.923 499.753 273.923 495.894V460.05C273.923 457.787 274.48 455.559 275.545 453.562C277.607 449.696 281.379 447.084 285.641 446.347C379.815 430.052 449.947 360.368 451.142 251.848C451.166 249.617 451.866 247.401 453.198 245.569C455.156 242.878 458.257 241.253 461.584 241.177L499.235 240.311Z" fill="#16222E"/>
<path d="M499.235 240.311C502.098 240.246 504.822 241.54 506.58 243.8C507.817 245.389 508.489 247.366 508.477 249.382C508.072 315.069 491.342 370.752 455.491 414.498C419.647 458.236 364.863 489.83 288.75 507.678C285.335 508.478 281.7 507.736 278.872 505.662C275.761 503.38 273.923 499.753 273.923 495.894V460.05C273.923 457.787 274.48 455.559 275.545 453.562C277.607 449.696 281.379 447.084 285.641 446.347C379.815 430.052 449.947 360.368 451.142 251.848C451.166 249.617 451.866 247.401 453.198 245.569C455.156 242.878 458.257 241.253 461.584 241.177L499.235 240.311Z" fill="url(#paint0_linear_657_13)"/>
<path d="M499.235 240.311C502.098 240.246 504.822 241.54 506.58 243.8C507.817 245.389 508.489 247.366 508.477 249.382C508.072 315.069 491.342 370.752 455.491 414.498C419.647 458.236 364.863 489.83 288.75 507.678C285.335 508.478 281.7 507.736 278.872 505.662C275.761 503.38 273.923 499.753 273.923 495.894V460.05C273.923 457.787 274.48 455.559 275.545 453.562C277.607 449.696 281.379 447.084 285.641 446.347C379.815 430.052 449.947 360.368 451.142 251.848C451.166 249.617 451.866 247.401 453.198 245.569C455.156 242.878 458.257 241.253 461.584 241.177L499.235 240.311Z" stroke="white" stroke-width="4"/>
<path d="M240.812 495.069C240.812 497.707 239.958 500.275 238.377 502.388C235.573 506.134 230.844 507.956 226.247 507.026C169.916 495.622 123.058 478.562 85.9276 445.239C48.7804 411.901 21.5894 362.487 4.17003 286.809C3.6918 284.731 3.85262 282.509 4.64827 280.52C6.25098 276.512 10.1331 273.884 14.4496 273.884L52.5638 273.884C57.4268 273.884 61.369 277.826 61.3691 282.689C61.3691 283.174 61.4455 283.665 61.5915 284.129C75.7399 329.115 92.1354 366.025 117.69 393.685C143.191 421.285 177.966 439.835 229.201 447.792C232.213 448.259 235.061 449.705 237.172 451.962C239.511 454.462 240.813 457.758 240.813 461.182L240.812 495.069Z" fill="#16222E"/>
<path d="M240.812 495.069C240.812 497.707 239.958 500.275 238.377 502.388C235.573 506.134 230.844 507.956 226.247 507.026C169.916 495.622 123.058 478.562 85.9276 445.239C48.7804 411.901 21.5894 362.487 4.17003 286.809C3.6918 284.731 3.85262 282.509 4.64827 280.52C6.25098 276.512 10.1331 273.884 14.4496 273.884L52.5638 273.884C57.4268 273.884 61.369 277.826 61.3691 282.689C61.3691 283.174 61.4455 283.665 61.5915 284.129C75.7399 329.115 92.1354 366.025 117.69 393.685C143.191 421.285 177.966 439.835 229.201 447.792C232.213 448.259 235.061 449.705 237.172 451.962C239.511 454.462 240.813 457.758 240.813 461.182L240.812 495.069Z" fill="url(#paint1_linear_657_13)"/>
<path d="M240.812 495.069C240.812 497.707 239.958 500.275 238.377 502.388C235.573 506.134 230.844 507.956 226.247 507.026C169.916 495.622 123.058 478.562 85.9276 445.239C48.7804 411.901 21.5894 362.487 4.17003 286.809C3.6918 284.731 3.85262 282.509 4.64827 280.52C6.25098 276.512 10.1331 273.884 14.4496 273.884L52.5638 273.884C57.4268 273.884 61.369 277.826 61.3691 282.689C61.3691 283.174 61.4455 283.665 61.5915 284.129C75.7399 329.115 92.1354 366.025 117.69 393.685C143.191 421.285 177.966 439.835 229.201 447.792C232.213 448.259 235.061 449.705 237.172 451.962C239.511 454.462 240.813 457.758 240.813 461.182L240.812 495.069Z" stroke="white" stroke-width="4"/>
<path d="M52.2305 241.548L14.3787 240.22C10.0236 240.067 6.31433 237.008 5.33434 232.761C5.1244 231.852 5.04268 230.917 5.1118 229.965C11.4415 142.793 92.0348 27.1011 225.987 5.40094C230.791 4.62269 235.607 6.60524 238.562 10.4171C240.397 12.7854 241.394 15.6971 241.394 18.6937L241.394 56.061C241.394 60.6714 237.988 64.5364 233.49 65.2633C186.467 72.86 148.877 87.9777 120.653 114.386C92.4403 140.783 73.3793 178.656 63.7796 232.162C63.4749 233.86 62.7877 235.511 61.7544 236.923C59.5418 239.947 55.9752 241.679 52.2305 241.548Z" fill="#16222E"/>
<path d="M52.2305 241.548L14.3787 240.22C10.0236 240.067 6.31433 237.008 5.33434 232.761C5.1244 231.852 5.04268 230.917 5.1118 229.965C11.4415 142.793 92.0348 27.1011 225.987 5.40094C230.791 4.62269 235.607 6.60524 238.562 10.4171C240.397 12.7854 241.394 15.6971 241.394 18.6937L241.394 56.061C241.394 60.6714 237.988 64.5364 233.49 65.2633C186.467 72.86 148.877 87.9777 120.653 114.386C92.4403 140.783 73.3793 178.656 63.7796 232.162C63.4749 233.86 62.7877 235.511 61.7544 236.923C59.5418 239.947 55.9752 241.679 52.2305 241.548Z" fill="url(#paint2_linear_657_13)"/>
<path d="M52.2305 241.548L14.3787 240.22C10.0236 240.067 6.31433 237.008 5.33434 232.761C5.1244 231.852 5.04268 230.917 5.1118 229.965C11.4415 142.793 92.0348 27.1011 225.987 5.40094C230.791 4.62269 235.607 6.60524 238.562 10.4171C240.397 12.7854 241.394 15.6971 241.394 18.6937L241.394 56.061C241.394 60.6714 237.988 64.5364 233.49 65.2633C186.467 72.86 148.877 87.9777 120.653 114.386C92.4403 140.783 73.3793 178.656 63.7796 232.162C63.4749 233.86 62.7877 235.511 61.7544 236.923C59.5418 239.947 55.9752 241.679 52.2305 241.548Z" stroke="white" stroke-width="4"/>
<path d="M272.934 17.9907C272.934 13.5704 275.141 9.44182 278.816 6.98528C281.591 5.13032 284.981 4.37053 288.303 4.96133C365.386 18.6734 441.231 66.1289 478.284 137.041C479.665 139.685 479.755 142.791 478.622 145.511C477.698 147.729 476.017 149.548 473.879 150.645L440.017 168.009C437.073 169.519 433.62 169.681 430.548 168.452C427.619 167.281 425.381 164.973 424.11 162.196C416.243 145.014 399.154 122.982 374.834 103.959C350.535 84.9529 319.13 69.0369 282.695 63.9335C280.854 63.6756 279.07 62.9824 277.541 61.8705C274.647 59.766 272.935 56.4032 272.935 52.8251L272.934 17.9907Z" fill="#16222E"/>
<path d="M272.934 17.9907C272.934 13.5704 275.141 9.44182 278.816 6.98528C281.591 5.13032 284.981 4.37053 288.303 4.96133C365.386 18.6734 441.231 66.1289 478.284 137.041C479.665 139.685 479.755 142.791 478.622 145.511C477.698 147.729 476.017 149.548 473.879 150.645L440.017 168.009C437.073 169.519 433.62 169.681 430.548 168.452C427.619 167.281 425.381 164.973 424.11 162.196C416.243 145.014 399.154 122.982 374.834 103.959C350.535 84.9529 319.13 69.0369 282.695 63.9335C280.854 63.6756 279.07 62.9824 277.541 61.8705C274.647 59.766 272.935 56.4032 272.935 52.8251L272.934 17.9907Z" fill="url(#paint3_linear_657_13)"/>
<path d="M272.934 17.9907C272.934 13.5704 275.141 9.44182 278.816 6.98528C281.591 5.13032 284.981 4.37053 288.303 4.96133C365.386 18.6734 441.231 66.1289 478.284 137.041C479.665 139.685 479.755 142.791 478.622 145.511C477.698 147.729 476.017 149.548 473.879 150.645L440.017 168.009C437.073 169.519 433.62 169.681 430.548 168.452C427.619 167.281 425.381 164.973 424.11 162.196C416.243 145.014 399.154 122.982 374.834 103.959C350.535 84.9529 319.13 69.0369 282.695 63.9335C280.854 63.6756 279.07 62.9824 277.541 61.8705C274.647 59.766 272.935 56.4032 272.935 52.8251L272.934 17.9907Z" stroke="white" stroke-width="4"/>
<path d="M214.846 106.036C234.487 100.822 254.967 99.5543 275.101 102.308C296.043 105.171 316.168 112.324 334.22 123.319L340.45 127.114C356.861 137.11 371.087 150.316 382.275 165.939L392.958 180.86C395.111 183.867 396.749 187.211 397.804 190.756C404.05 211.742 388.707 232.946 366.821 233.576L354.853 233.921C341.463 234.306 328.674 228.36 320.339 217.874L313.135 208.812C305.114 198.72 294.132 191.396 281.733 187.87L273.999 185.671C255.408 180.384 235.479 182.669 218.568 192.027C201.751 201.334 189.272 216.885 183.829 235.319L183.305 237.096C178.885 252.065 179.716 268.096 185.659 282.529C191.29 296.204 201.199 307.688 213.904 315.259L219.212 318.422C235.74 328.272 255.516 331.119 274.151 326.332L277.955 325.354C292.628 321.585 305.408 312.564 313.874 300.002L321.006 289.42C328.793 277.866 341.813 270.94 355.745 270.939H356.782C383.733 270.939 403.389 296.449 396.518 322.51C394.931 328.531 391.995 334.112 387.935 338.832L371.376 358.082C358.277 373.309 342.169 385.831 324.206 394.812C312.719 400.556 300.48 404.859 287.919 407.551L284.484 408.288C264.846 412.496 244.56 412.689 224.846 408.855C206.601 405.308 189.181 398.377 173.486 388.42L172.925 388.063C156.299 377.516 141.874 363.849 130.446 347.815L129.451 346.42C117.997 330.35 109.59 312.314 104.649 293.209L103.451 288.576C98.6474 270.004 97.5481 250.41 100.139 231.41C102.77 212.119 109.298 193.28 119.267 176.547C128.983 160.239 141.808 145.998 157.013 134.634L160.024 132.385C176.19 120.302 194.524 111.432 214.031 106.253L214.846 106.036Z" fill="#16222E"/>
<path d="M214.846 106.036C234.487 100.822 254.967 99.5543 275.101 102.308C296.043 105.171 316.168 112.324 334.22 123.319L340.45 127.114C356.861 137.11 371.087 150.316 382.275 165.939L392.958 180.86C395.111 183.867 396.749 187.211 397.804 190.756C404.05 211.742 388.707 232.946 366.821 233.576L354.853 233.921C341.463 234.306 328.674 228.36 320.339 217.874L313.135 208.812C305.114 198.72 294.132 191.396 281.733 187.87L273.999 185.671C255.408 180.384 235.479 182.669 218.568 192.027C201.751 201.334 189.272 216.885 183.829 235.319L183.305 237.096C178.885 252.065 179.716 268.096 185.659 282.529C191.29 296.204 201.199 307.688 213.904 315.259L219.212 318.422C235.74 328.272 255.516 331.119 274.151 326.332L277.955 325.354C292.628 321.585 305.408 312.564 313.874 300.002L321.006 289.42C328.793 277.866 341.813 270.94 355.745 270.939H356.782C383.733 270.939 403.389 296.449 396.518 322.51C394.931 328.531 391.995 334.112 387.935 338.832L371.376 358.082C358.277 373.309 342.169 385.831 324.206 394.812C312.719 400.556 300.48 404.859 287.919 407.551L284.484 408.288C264.846 412.496 244.56 412.689 224.846 408.855C206.601 405.308 189.181 398.377 173.486 388.42L172.925 388.063C156.299 377.516 141.874 363.849 130.446 347.815L129.451 346.42C117.997 330.35 109.59 312.314 104.649 293.209L103.451 288.576C98.6474 270.004 97.5481 250.41 100.139 231.41C102.77 212.119 109.298 193.28 119.267 176.547C128.983 160.239 141.808 145.998 157.013 134.634L160.024 132.385C176.19 120.302 194.524 111.432 214.031 106.253L214.846 106.036Z" fill="url(#paint4_linear_657_13)"/>
<path d="M214.846 106.036C234.487 100.822 254.967 99.5543 275.101 102.308C296.043 105.171 316.168 112.324 334.22 123.319L340.45 127.114C356.861 137.11 371.087 150.316 382.275 165.939L392.958 180.86C395.111 183.867 396.749 187.211 397.804 190.756C404.05 211.742 388.707 232.946 366.821 233.576L354.853 233.921C341.463 234.306 328.674 228.36 320.339 217.874L313.135 208.812C305.114 198.72 294.132 191.396 281.733 187.87L273.999 185.671C255.408 180.384 235.479 182.669 218.568 192.027C201.751 201.334 189.272 216.885 183.829 235.319L183.305 237.096C178.885 252.065 179.716 268.096 185.659 282.529C191.29 296.204 201.199 307.688 213.904 315.259L219.212 318.422C235.74 328.272 255.516 331.119 274.151 326.332L277.955 325.354C292.628 321.585 305.408 312.564 313.874 300.002L321.006 289.42C328.793 277.866 341.813 270.94 355.745 270.939H356.782C383.733 270.939 403.389 296.449 396.518 322.51C394.931 328.531 391.995 334.112 387.935 338.832L371.376 358.082C358.277 373.309 342.169 385.831 324.206 394.812C312.719 400.556 300.48 404.859 287.919 407.551L284.484 408.288C264.846 412.496 244.56 412.689 224.846 408.855C206.601 405.308 189.181 398.377 173.486 388.42L172.925 388.063C156.299 377.516 141.874 363.849 130.446 347.815L129.451 346.42C117.997 330.35 109.59 312.314 104.649 293.209L103.451 288.576C98.6474 270.004 97.5481 250.41 100.139 231.41C102.77 212.119 109.298 193.28 119.267 176.547C128.983 160.239 141.808 145.998 157.013 134.634L160.024 132.385C176.19 120.302 194.524 111.432 214.031 106.253L214.846 106.036Z" stroke="white" stroke-width="4"/>
<defs>
<linearGradient id="paint0_linear_657_13" x1="606.255" y1="-996.999" x2="12.2874" y2="-958.821" gradientUnits="userSpaceOnUse">
<stop stop-color="#070515"/>
<stop offset="1" stop-color="#1A61B2"/>
</linearGradient>
<linearGradient id="paint1_linear_657_13" x1="1331.33" y1="605.511" x2="1287.77" y2="12.3188" gradientUnits="userSpaceOnUse">
<stop stop-color="#070515"/>
<stop offset="1" stop-color="#1A61B2"/>
</linearGradient>
<linearGradient id="paint2_linear_657_13" x1="-96.4416" y1="1334.66" x2="500.329" y2="1292.71" gradientUnits="userSpaceOnUse">
<stop stop-color="#070515"/>
<stop offset="1" stop-color="#1A61B2"/>
</linearGradient>
<linearGradient id="paint3_linear_657_13" x1="-728.137" y1="-180.182" x2="-755.349" y2="186.45" gradientUnits="userSpaceOnUse">
<stop stop-color="#070515"/>
<stop offset="1" stop-color="#1A61B2"/>
</linearGradient>
<linearGradient id="paint4_linear_657_13" x1="541.363" y1="-1363.49" x2="-254.511" y2="-1305.39" gradientUnits="userSpaceOnUse">
<stop stop-color="#070515"/>
<stop offset="1" stop-color="#1A61B2"/>
</linearGradient>
</defs>
</svg>
