<svg width="512" height="512" viewBox="0 0 512 512" fill="none" xmlns="http://www.w3.org/2000/svg">
<circle cx="255.977" cy="256" r="242" fill="#B2C6DC"/>
<mask id="path-2-inside-1_657_13" fill="white">
<path d="M432.754 432.777C397.79 467.74 353.245 491.55 304.75 501.196C256.254 510.843 205.988 505.892 160.306 486.97C114.625 468.048 75.5799 436.005 48.1095 394.893C20.6392 353.78 5.97693 305.445 5.97693 256C5.97693 206.555 20.6392 158.22 48.1095 117.107C75.5799 75.9952 114.625 43.952 160.306 25.0301C205.988 6.10821 256.254 1.15738 304.749 10.8037C353.245 20.45 397.79 44.2602 432.754 79.2233L255.977 256L432.754 432.777Z"/>
</mask>
<path d="M432.754 432.777C397.79 467.74 353.245 491.55 304.75 501.196C256.254 510.843 205.988 505.892 160.306 486.97C114.625 468.048 75.5799 436.005 48.1095 394.893C20.6392 353.78 5.97693 305.445 5.97693 256C5.97693 206.555 20.6392 158.22 48.1095 117.107C75.5799 75.9952 114.625 43.952 160.306 25.0301C205.988 6.10821 256.254 1.15738 304.749 10.8037C353.245 20.45 397.79 44.2602 432.754 79.2233L255.977 256L432.754 432.777Z" fill="#070515" stroke="#1A61B2" stroke-width="16" mask="url(#path-2-inside-1_657_13)"/>
<path d="M474.622 247.703C475.358 247.686 476.058 248.018 476.51 248.599C476.824 249.002 476.997 249.513 476.994 250.02C476.637 308.048 461.875 356.671 430.712 394.698C399.536 432.739 351.598 460.6 284.095 476.428C282.677 476.761 281.148 476.448 279.973 475.586C278.668 474.629 277.896 473.107 277.896 471.488V439.29C277.896 438.208 278.163 437.144 278.672 436.19C279.644 434.367 281.466 433.064 283.614 432.693C370.729 417.62 435.979 352.838 437.085 252.333C437.094 251.484 437.363 250.672 437.823 250.04C438.518 249.084 439.62 248.507 440.801 248.48L474.622 247.703Z" fill="url(#paint0_linear_657_13)" stroke="url(#paint1_linear_657_13)" stroke-width="8"/>
<path d="M236.561 440.307L236.561 470.746C236.561 471.863 236.199 472.952 235.529 473.847C234.344 475.431 232.345 476.193 230.425 475.804C180.249 465.647 139.337 450.6 107.102 421.671C74.901 392.771 50.9178 349.614 35.4405 282.374C35.2724 281.643 35.3333 280.853 35.6035 280.177C36.163 278.778 37.5183 277.861 39.0251 277.861L73.2624 277.861C74.429 277.861 75.3747 278.807 75.3749 279.973C75.3749 281.002 75.534 282.029 75.8412 283.006C88.6281 323.663 103.668 357.81 127.505 383.61C151.451 409.527 183.963 426.695 231.038 434.006C232.524 434.237 233.885 434.948 234.854 435.985C235.95 437.157 236.561 438.702 236.561 440.307Z" fill="url(#paint2_linear_657_13)" stroke="#1A61B2" stroke-width="8"/>
<path d="M73.1651 237.225L39.1654 236.032C37.8752 235.987 36.7755 235.081 36.4852 233.823C36.42 233.54 36.4011 233.281 36.419 233.033C41.9222 157.247 112.452 55.657 229.968 36.6195C232.126 36.27 234.362 37.1574 235.754 38.9543C236.616 40.0654 237.083 41.4311 237.083 42.837L237.084 76.4025C237.084 77.6215 236.166 78.7352 234.856 78.947C191.935 85.8811 156.941 99.7876 130.463 124.561C103.964 149.356 86.4074 184.65 77.6316 233.563C77.5072 234.256 77.2266 234.911 76.8391 235.441C75.9856 236.608 74.6098 237.276 73.1651 237.225Z" fill="url(#paint3_linear_657_13)" stroke="#1A61B2" stroke-width="8"/>
<path d="M277.008 42.2057C277.008 40.1707 278.024 38.2697 279.716 37.1388C281.007 36.2756 282.542 35.9497 284.001 36.2092C351.814 48.2722 418.228 90.0061 450.53 151.828C450.95 152.631 450.998 153.619 450.621 154.524C450.318 155.251 449.767 155.846 449.067 156.206L418.65 171.804C417.497 172.395 416.145 172.459 414.943 171.978C413.827 171.531 412.862 170.604 412.277 169.327C404.753 152.893 388.743 132.405 366.315 114.862C343.842 97.2833 314.7 82.4849 280.783 77.7342C280.025 77.6279 279.327 77.3466 278.759 76.9334C277.659 76.1339 277.009 74.8564 277.009 73.497L277.008 42.2057Z" fill="url(#paint4_linear_657_13)" stroke="url(#paint5_linear_657_13)" stroke-width="8"/>
<path d="M220.521 126.896C237.422 122.409 255.046 121.319 272.372 123.688C290.393 126.152 307.712 132.308 323.246 141.769L328.843 145.177C342.919 153.751 355.119 165.077 364.714 178.477L374.312 191.879C375.871 194.057 377.057 196.48 377.821 199.047C382.346 214.248 371.232 229.608 355.379 230.064L344.629 230.373C334.427 230.666 324.682 226.136 318.331 218.146L311.86 210.005C303.901 199.992 293.003 192.725 280.7 189.226L273.754 187.25C255.581 182.082 236.101 184.316 219.57 193.464C203.132 202.561 190.933 217.763 185.613 235.782L185.142 237.377C180.797 252.092 181.614 267.85 187.456 282.037C192.991 295.479 202.732 306.766 215.22 314.208L219.987 317.05C236.16 326.689 255.511 329.475 273.746 324.791L277.164 323.913C291.718 320.174 304.395 311.226 312.793 298.765L319.199 289.259C325.116 280.48 335.011 275.216 345.598 275.216H346.528C366.936 275.216 381.819 294.532 376.616 314.265C375.414 318.824 373.192 323.05 370.117 326.625L355.243 343.916C343.982 357.007 330.127 367.78 314.675 375.505C304.791 380.447 294.26 384.15 283.458 386.464L280.371 387.125C263.496 390.742 246.063 390.908 229.122 387.614C213.443 384.565 198.474 378.609 184.986 370.052L184.483 369.733C170.18 360.66 157.771 348.901 147.94 335.109L147.046 333.856C137.169 319.999 129.92 304.447 125.659 287.972L124.583 283.81C120.46 267.868 119.513 251.027 121.74 234.696C124 218.128 129.608 201.949 138.158 187.597C146.497 173.601 157.505 161.379 170.555 151.625L173.258 149.604C187.186 139.195 202.982 131.552 219.788 127.09L220.521 126.896Z" fill="url(#paint6_linear_657_13)" stroke="url(#paint7_linear_657_13)" stroke-width="8"/>
<defs>
<linearGradient id="paint0_linear_657_13" x1="570.62" y1="-869.517" x2="37.0832" y2="-835.224" gradientUnits="userSpaceOnUse">
<stop stop-color="white"/>
<stop offset="1" stop-color="#1A61B2"/>
</linearGradient>
<linearGradient id="paint1_linear_657_13" x1="458.477" y1="244" x2="288.477" y2="461.5" gradientUnits="userSpaceOnUse">
<stop offset="0.639423" stop-color="#0B2A4C"/>
<stop offset="1" stop-color="#1A61B2"/>
</linearGradient>
<linearGradient id="paint2_linear_657_13" x1="1221.92" y1="569.951" x2="1182.8" y2="37.1112" gradientUnits="userSpaceOnUse">
<stop stop-color="white"/>
<stop offset="1" stop-color="#1A61B2"/>
</linearGradient>
<linearGradient id="paint3_linear_657_13" x1="-60.5837" y1="1224.91" x2="475.471" y2="1187.24" gradientUnits="userSpaceOnUse">
<stop stop-color="white"/>
<stop offset="1" stop-color="#1A61B2"/>
</linearGradient>
<linearGradient id="paint4_linear_657_13" x1="-628.01" y1="-135.804" x2="-652.453" y2="193.526" gradientUnits="userSpaceOnUse">
<stop stop-color="white"/>
<stop offset="1" stop-color="#1A61B2"/>
</linearGradient>
<linearGradient id="paint5_linear_657_13" x1="272.36" y1="44.5766" x2="391.977" y2="204.298" gradientUnits="userSpaceOnUse">
<stop stop-color="#1A61B2"/>
<stop offset="0.754808" stop-color="#0B2A4C"/>
</linearGradient>
<linearGradient id="paint6_linear_657_13" x1="512.33" y1="-1198.72" x2="-202.571" y2="-1146.53" gradientUnits="userSpaceOnUse">
<stop stop-color="white"/>
<stop offset="1" stop-color="#1A61B2"/>
</linearGradient>
<linearGradient id="paint7_linear_657_13" x1="382.977" y1="245.5" x2="123.34" y2="276.674" gradientUnits="userSpaceOnUse">
<stop offset="0.305504" stop-color="#0B2A4C"/>
<stop offset="1" stop-color="#1A61B2"/>
</linearGradient>
</defs>
</svg>
